<?xml version="1.0" encoding="UTF-8" standalone="no"?>
<svg width="1024px" height="1024px" viewBox="0 0 1024 1024" version="1.1" xmlns="http://www.w3.org/2000/svg" xmlns:xlink="http://www.w3.org/1999/xlink">
    <!-- Generator: Sketch 47 (45396) - http://www.bohemiancoding.com/sketch -->
    <title>add</title>
    <desc>Created with Sketch.</desc>
    <defs></defs>
    <g id="Page-1" stroke="none" stroke-width="1" fill="none" fill-rule="evenodd">
        <g id="Wind图标" transform="translate(-9641.000000, -9188.000000)" fill-rule="nonzero" fill="#666666">
            <g id="add" transform="translate(9673.000000, 9220.000000)">
                <path d="M932.132014,508.235294 C947.725936,508.235294 960.367309,495.593921 960.367309,480 C960.367309,464.406079 947.725936,451.764706 932.132014,451.764706 L28.6026041,451.764706 C13.0086813,451.764706 0.367309091,464.406079 0.367309091,480 C0.367309091,495.593921 13.0086813,508.235294 28.6026041,508.235294 L932.132014,508.235294 Z M452.132015,931.764705 C452.132015,947.358626 464.773388,960 480.367309,960 C495.961231,960 508.602603,947.358626 508.602603,931.764705 L508.602603,28.235295 C508.602603,12.6413722 495.961231,0 480.367309,0 C464.773388,0 452.132015,12.6413722 452.132015,28.235295 L452.132015,931.764705 Z" id="Shape"></path>
            </g>
        </g>
    </g>
</svg>