<?xml version="1.0" encoding="UTF-8" standalone="no"?>
<svg width="1024px" height="1024px" viewBox="0 0 1024 1024" version="1.1" xmlns="http://www.w3.org/2000/svg" xmlns:xlink="http://www.w3.org/1999/xlink">
    <!-- Generator: Sketch 47 (45396) - http://www.bohemiancoding.com/sketch -->
    <title>asset</title>
    <desc>Created with Sketch.</desc>
    <defs></defs>
    <g id="Page-1" stroke="none" stroke-width="1" fill="none" fill-rule="evenodd">
        <g id="Wind图标" transform="translate(-11714.000000, -14671.000000)" fill-rule="nonzero" fill="#666666">
            <g id="asset" transform="translate(11783.000000, 14740.000000)">
                <path d="M886.694138,128.882886 C877.824138,57.2482103 682.786092,0 443.5,0 C204.213908,0 9.17586207,57.2482103 0.305862069,128.882886 L0,128.882886 L0,757.422595 L0.203908046,757.422595 C7.85045977,829.354922 203.398276,887 443.5,887 C683.601724,887 879.14954,829.354922 886.796092,757.422595 L887,757.422595 L887,128.882886 L886.694138,128.882886 Z M160.730069,82.4082353 C237.824453,61.4323529 338.169525,50 443.205524,50 C548.241524,50 648.484618,61.5317647 725.680979,82.4082353 C760.55701,91.8523529 789.824323,103.085882 810.321639,114.915882 C826.535934,124.260588 832.756513,131.318824 835,134.400588 C832.756513,137.482353 826.433957,144.540588 810.321639,153.885294 C789.824323,165.715294 760.55701,176.948824 725.680979,186.392941 C648.484618,207.468235 548.241524,219 443.205524,219 C349.386962,219 252.305145,205.181765 170.009949,180.229412 C135.847755,169.791176 105.356722,157.762353 81.9020814,145.435294 C69.4609242,138.874118 61.2008116,133.406471 56,129.43 C56.3059301,129.131765 56.7138369,128.734118 57.1217437,128.435882 L57.3256971,128.237059 C57.7336039,127.938824 58.1415107,127.541176 58.5494175,127.143529 L58.7533709,126.944706 C59.1612777,126.646471 59.5691844,126.248824 59.9770912,125.950588 C60.0790679,125.851176 60.1810446,125.851176 60.1810446,125.751765 C60.6909281,125.354118 61.0988349,124.956471 61.7106951,124.558824 L62.0166252,124.260588 C62.5265087,123.862941 63.1383689,123.465294 63.6482524,122.968235 C64.2601126,122.570588 64.8719728,122.073529 65.483833,121.675882 C65.5858097,121.576471 65.7897631,121.477059 65.8917398,121.377647 C66.5035999,120.98 67.2174368,120.482941 67.829297,119.985882 C67.9312737,119.886471 68.0332504,119.787059 68.1352271,119.787059 C68.7470873,119.389412 69.4609242,118.892353 70.0727844,118.494706 C70.1747611,118.395294 70.2767378,118.295882 70.4806912,118.295882 C71.1945281,117.798824 72.0103417,117.301765 72.8261553,116.804706 C73.0301087,116.705294 73.2340621,116.605882 73.3360387,116.506471 C74.1518523,116.009412 75.0696426,115.512353 75.9874329,115.015294 C96.6887027,103.185294 125.956015,91.8523529 160.730069,82.4082353 Z M810.509677,773.087095 C790.015457,784.898465 760.752565,796.114303 725.881803,805.543548 C648.697104,826.486396 548.469152,838 443.449019,838 C338.428887,838 238.200935,826.486396 161.118197,805.642803 C126.247435,796.213558 96.9845434,784.99772 76.4903234,773.186351 C57.4235615,762.169023 52.0196129,754.327861 51,752.442012 L51,185 C51.8156903,185.496276 52.6313807,185.893297 53.5490323,186.389573 C55.7921808,187.580635 58.1372906,188.870953 60.5843616,190.062016 C61.400052,190.459036 62.113781,190.856057 62.9294714,191.253078 C65.1726198,192.44414 67.5177296,193.535948 69.8628393,194.72701 C70.780491,195.223286 71.8001039,195.620307 72.8197168,196.116583 C77.4079751,198.300198 82.2001559,200.483812 87.1962593,202.568171 C90.6629432,204.057 94.3335498,205.545828 98.0041564,207.034656 C103.612028,209.317525 109.32186,211.50114 115.337576,213.78401 C117.682686,214.677307 120.129757,215.570603 122.576828,216.4639 C125.023899,217.357197 127.47097,218.250494 130.020003,219.044536 C133.79257,220.334853 137.565138,221.625171 141.541629,222.915489 C142.867126,223.312509 144.192622,223.70953 145.416158,224.205806 C147.761268,224.900593 150.106377,225.694634 152.451487,226.389421 C154.082868,226.885697 155.81621,227.381973 157.447591,227.878249 C158.773087,228.27527 160.200546,228.672291 161.526042,229.069311 L169.784907,231.451436 C171.212365,231.848457 172.537862,232.245478 173.96532,232.642499 C176.820236,233.436541 179.675153,234.230582 182.530069,234.925369 C184.263411,235.421645 185.996753,235.818665 187.730095,236.314941 C191.808547,237.406749 195.886998,238.399301 200.067411,239.391853 C203.024289,240.086639 206.083128,240.880681 209.040005,241.575467 C211.690999,242.170999 214.443954,242.865785 217.094947,243.461316 C217.808676,243.659827 218.522406,243.759082 219.236135,243.957592 L227.494999,245.744186 C230.655799,246.438972 233.714638,247.034504 236.875438,247.72929 C238.506819,248.027056 240.036238,248.324821 241.667619,248.721842 C246.4598,249.714394 251.251981,250.607691 256.146123,251.500988 L261.040265,252.394285 C265.934407,253.287582 270.93051,254.081623 275.926614,254.875665 C277.557995,255.173431 279.291337,255.371941 280.922717,255.669707 C285.918821,256.463748 291.016885,257.25779 296.11495,257.952576 C297.848292,258.151087 299.581634,258.448852 301.213015,258.647363 C304.373815,259.044384 307.636576,259.54066 310.899338,259.93768 C312.836602,260.235446 314.875828,260.433957 316.813093,260.632467 C320.075854,261.029488 323.440577,261.426509 326.805299,261.823529 C334.044551,262.617571 341.385764,263.411613 348.726978,264.007144 C363.10352,265.297462 377.683985,266.290014 392.570334,267.084055 C396.24094,267.282566 400.013508,267.381821 403.786076,267.580331 C407.558644,267.679587 411.331212,267.878097 415.001818,267.977352 C418.672425,268.076607 422.546954,268.175863 426.319522,268.175863 C432.029354,268.275118 437.739187,268.275118 443.449019,268.275118 C613.826341,268.275118 761.670217,239.292598 836,196.712114 L836,752.342757 C834.878426,754.228606 829.576438,762.069767 810.509677,773.087095 L810.509677,773.087095 Z M481.975,461.409144 L586,461.409144 L586,511.020269 L468.946429,511.020269 L468.946429,576.40773 L586,576.40773 L586,626.018855 L468.946429,626.018855 L468.946429,756 L418.053571,756 L418.053571,626.018855 L301,626.018855 L301,576.40773 L418.053571,576.40773 L418.053571,511.020269 L301,511.020269 L301,461.409144 L405.025,461.409144 L311.382143,370.124676 L347.414286,335 L443.5,428.665802 L539.585714,335 L575.617857,370.124676 L481.975,461.409144 Z" id="Portfolio"></path>
            </g>
        </g>
    </g>
</svg>