<?xml version="1.0" encoding="UTF-8" standalone="no"?>
<svg width="1024px" height="1024px" viewBox="0 0 1024 1024" version="1.1" xmlns="http://www.w3.org/2000/svg" xmlns:xlink="http://www.w3.org/1999/xlink">
    <!-- Generator: Sketch 47 (45396) - http://www.bohemiancoding.com/sketch -->
    <title>good</title>
    <desc>Created with Sketch.</desc>
    <defs></defs>
    <g id="Page-1" stroke="none" stroke-width="1" fill="none" fill-rule="evenodd">
        <g id="Wind图标" transform="translate(-1460.000000, -5446.000000)" fill-rule="nonzero" fill="#666666">
            <g id="good" transform="translate(1460.000000, 5457.000000)">
                <path d="M749.697641,1001.39864 L417.420097,1001.39864 C403.889952,1001.39864 392.877823,990.520802 392.877823,977.158524 C392.877823,963.796247 403.889952,952.951986 417.420097,952.951986 L749.697641,952.951986 C820.302842,952.951986 854.413581,914.644552 870.528891,882.514653 C871.334657,880.567386 871.603245,878.787988 872.006128,876.672853 C875.061322,861.329735 880.231651,835.578813 914.174522,794.921229 C938.649649,765.577936 934.452953,734.421671 929.51764,698.363665 C927.973256,686.91508 926.428872,675.533643 925.790974,664.252926 C922.970795,616.142011 935.594455,595.359976 953.119854,566.55386 C956.309342,561.383532 959.733846,555.743173 963.393364,549.431343 C979.4751,521.699581 978.568614,487.28668 960.976068,457.40621 C939.488988,420.878174 899.066419,399.021785 852.902771,399.021785 C771.117574,399.021785 676.843012,401.808391 675.936525,401.808391 C667.77815,402.110553 661.365599,398.954638 656.56458,393.415 C651.696414,387.875363 649.715573,380.455606 651.024942,373.270863 C651.360678,371.592185 682.147634,204.899449 682.147634,131.641937 C682.147634,56.504305 625.139726,48.4130765 600.698173,48.4130765 C562.055003,48.4130765 530.630149,89.5406901 530.630149,140.136048 C530.630149,203.01933 530.630149,224.237821 497.392322,270.132881 C451.530836,333.452619 364.94462,439.712943 299.711189,439.712943 L258.382134,439.712943 L258.382134,977.124951 C258.382134,990.520802 247.370005,1001.36506 233.83986,1001.36506 L93.3680762,1001.36506 C41.8998055,1001.36506 0,960.036008 0,909.239208 L0,483.392147 C0,432.628921 41.8662319,391.299866 93.3680762,391.299866 L299.744762,391.299866 C328.953761,391.299866 393.851457,329.927395 457.439783,242.031809 C481.545601,208.760409 481.545601,200.937769 481.545601,140.169622 C481.545601,61.5403393 533.853211,0 600.664599,0 C660.89557,0 731.232182,34.5136218 731.232182,131.67551 C731.232182,190.563538 713.606062,300.147645 704.5412,352.69027 C739.356984,351.850931 798.815763,350.642282 852.902771,350.642282 C916.759686,350.642282 973.096123,381.462812 1003.44662,433.132524 C1029.90259,478.121098 1030.87622,530.630149 1006.03179,573.503588 C1002.17083,580.151153 998.578457,586.0601 995.254674,591.53259 C978.971497,618.257146 972.861108,628.262067 974.808375,661.46632 C975.412699,671.504815 976.856362,681.711178 978.199305,691.917541 C983.537501,731.165035 990.185067,780.014568 952.079074,825.674612 C926.025989,856.931599 922.500765,874.456998 920.150616,886.039877 C919.042688,891.579515 917.867614,897.320594 914.980287,903.095246 C882.951109,966.784294 824.432391,1001.39864 749.697641,1001.39864 L749.697641,1001.39864 Z M93.3680762,439.746516 C68.9936701,439.746516 49.1181213,459.319903 49.1181213,483.392147 L49.1181213,909.306355 C49.1181213,933.412173 68.9936701,952.98556 93.3680762,952.98556 L209.297586,952.98556 L209.297586,439.746516 L93.3680762,439.746516 L93.3680762,439.746516 Z" id="Shape"></path>
            </g>
        </g>
    </g>
</svg>